Patient4_TMGait_0pt7_01_left_36_EMG.mot
version=1
nRows=30
nColumns=33
inDegrees=no
endheader
time	1LAddLong	2LGlutMax	3LGlutMed	4LIliopsoas	5LSemiMemb	6LBicFemLong	7LRecFem	8LVastMed	9LVastLat	10LGasMed	11LTibAnt	12lTibPost	13LPeroneusLong	14LSol	15LExtDigLong	16LFlexDigLong	17RAddLong	18RGlutMax	19RGlutMed	20RIliopsoas	21RSemiMemb	22RBicFemLong	23RRecFem	24RVastMed	25RVastLat	26RGasMed	27RTibAnt	28RTibPost	29RPeroneusLong	30RSol	31RExtDigLong	32RFlexDigLong
42.39	-0.013123	-0.024109	-0.27603	-0.010681	0.019531	0.1532	0.075531	-0.004578	0.059357	-0.076752	0.001831	0.12344	0.11063	0.58624	0.05661	0.05127	0.05661	0.037537	-0.041199	0.00824	0.93445	-0.45136	0.14282	-0.25726	-0.37552	-0.010986	0.30975	0.010529	0.15686	0.24704	-0.003357	-0.011597
42.391	-0.009918	-0.028534	-0.2713	0.013123	-0.041046	0.16037	0.10696	0.004883	0.05661	0.013123	-0.000458	-0.051727	0.031128	0.70831	-0.022888	0.017548	0.057068	0.079956	-0.046539	0.040588	0.54138	-0.34454	0.1181	-0.14969	-0.1831	-0.009003	0.22324	-0.009003	-0.15045	0.005951	-0.003357	-0.011597
42.392	-0.009308	-0.016174	-0.27374	0.026855	-0.043793	0.099182	0.086212	0.013275	0.041656	0.092773	0.014191	-0.008392	0.014038	0.54901	0.011597	-0.033569	0.067749	0.15533	-0.17716	0.076599	0.23804	-0.079193	0.045776	-0.095062	-0.24094	-0.002441	0.00824	-0.009003	-0.025635	-0.1738	-0.000153	-0.015564
42.393	-0.01358	-0.058441	-0.31693	0.014191	-0.13199	-0.019684	0.081787	0.00412	0.039215	0.089111	-0.003967	0.12497	0.13596	0.15595	-0.001678	0.04303	-0.031433	0.20004	-0.20645	0.058441	-0.020752	0.2066	-0.03952	-0.003204	-0.64667	-0.009613	-0.42038	-0.001373	0.26123	-0.009766	-0.003204	-0.009003
42.394	0.009003	-0.050201	-0.32593	0.005035	-0.17029	-0.17899	0.075073	0.004883	0.058746	0.017853	-0.01297	0.058289	0.47272	-0.21164	0.022888	-0.092926	-0.19745	0.29205	-0.19165	-0.090027	-0.17563	0.40192	0.005646	0.050507	-0.8786	-0.008392	-0.34958	0.00473	-0.080109	0.004425	-0.003204	-0.015869
42.395	0.007629	-0.07019	-0.25024	0.008698	-0.10391	-0.23743	0.0914	-0.011444	0.052643	0.1152	0.000916	-0.13321	0.071564	-0.27069	0.024109	-0.11581	-0.23377	0.41138	-0.15823	-0.19318	0.42862	0.47958	-0.19424	0.18005	-0.82855	-0.007935	-0.20279	-0.001068	0.21164	-0.037231	-0.000305	-0.015259
42.396	0.013123	-0.15518	-0.31555	0.01236	0.021057	-0.31326	0.14114	-0.013123	0.012512	0.11566	0.007782	-0.081329	-0.22858	-0.14313	-0.016479	-1.0706	-0.22949	0.22247	0.4631	-0.12741	1.1957	0.45303	-0.64514	0.48843	-0.69427	-0.007324	-0.02533	0.001068	0.55008	-0.099335	-0.003204	-0.013123
42.397	0.018768	-0.19501	-0.27008	0.022125	0.11963	-0.4155	0.15396	-0.007172	-0.009003	0.041351	0.005493	0.018616	0.022583	-0.20676	-0.002136	0.29022	-0.1944	0.01709	0.028839	0.078583	1.1449	0.24521	-0.58594	0.33783	-0.54688	0.004425	0.34882	0.002899	-0.008392	-0.18356	-0.001831	-0.006409
42.398	0.029449	-0.18097	-0.17944	0.002136	0.090179	-0.25421	0.20981	-0.006561	-0.028839	0.043182	-0.002594	0.055237	-0.23987	-0.011444	0.036011	0.13443	-0.11566	-0.081787	-0.007629	0.25986	0.66132	0.029755	-0.31723	0.061188	-0.39963	0.006104	0.38391	0.003662	-0.010986	-0.16205	-0.000763	0.000305
42.399	0.026703	-0.15869	-0.25467	-0.0177	0.090332	0.028687	0.20981	0.001526	-0.04837	0.058289	-0.009308	0.055542	-0.093994	0.050507	0.01358	0.000153	-0.058136	-0.078735	0.37354	0.19852	0.53909	0.001831	-0.0914	0.15854	-0.25314	0.009155	0.1297	0.004272	0.13947	-0.16205	-0.001373	0.000916
42.4	0.018311	-0.20462	-0.16403	0.001373	0.16098	0.1564	0.23499	0.00885	-0.078888	0.12207	0.00824	0.075684	0.066376	0.13641	-0.036621	0.38452	-0.050659	0.062561	1.0503	0.067291	0.793	0.074463	0.13825	0.289	0.032043	0.003662	0.25726	0.000763	0.087433	-0.13901	-0.003815	-0.008392
42.401	-0.002594	-0.27588	-0.21118	-0.001526	0.12116	0.23224	0.23727	0.013885	-0.081635	0.15793	-0.00061	0.029907	0.27588	0.31494	-0.058594	-0.439	-0.015411	0.031433	1.1575	0.045776	1.0742	0.083618	0.10147	0.34058	0.17548	-0.014496	0.26093	-0.000916	-0.050354	0.002289	-0.003357	-0.01236
42.402	-0.005493	-0.20523	-0.233	-0.014343	0.061951	0.15503	0.1976	0.00946	-0.080109	0.12787	0.009918	0.22675	0.12558	0.59052	-0.047302	0.21866	0.000153	0.043945	0.59113	0.031738	0.92606	0.05722	0.064697	0.18082	0.26779	-0.007477	-0.047455	-0.005798	0.009766	-0.041809	-0.00824	-0.001221
42.403	-0.003052	-0.15472	-0.28503	0.002594	0.020447	0.11719	0.15121	0.013275	-0.071259	0.081482	0.012207	-0.068665	0.093689	0.51148	-0.062256	0.24857	0.020905	0.069427	0.39597	0.036926	0.58929	0.14587	0.022125	0.08728	0.19547	0.005493	-0.31357	-0.001678	0.089569	-0.06546	-0.00824	-0.003967
42.404	0.002747	-0.088959	-0.26047	0.007935	-0.028687	0.11444	0.072021	0.009155	-0.010071	0.000305	0.015869	-0.083466	0.1915	-0.25284	-0.051422	0.011292	0.027008	0.069122	0.39261	0.00946	0.439	0.14908	0.098114	-0.037689	0.017242	0.001221	-0.24872	-0.001984	0.06134	-0.00061	-0.002289	-0.012817
42.405	0.013123	-0.016327	-0.1651	0.004578	-0.11017	0.044708	0.093079	-0.000916	0.064087	0.112	0.009613	-0.07782	0.16861	-0.7756	-0.035706	0.1413	0.024414	0.024719	0.1915	0.00412	0.57922	0.11978	0.24689	-0.18875	-0.02182	-0.004578	-0.13611	-0.001373	0.076141	0.070038	0.002136	-0.013275
42.406	0.007477	-0.038452	-0.13855	0.017853	-0.14206	-0.016174	0.15366	-0.001678	-0.002899	0.11993	0.009003	-0.029297	-0.007629	-0.49835	-0.008087	0.20401	0.00824	-0.11063	0.16785	0.043945	0.58884	0.087738	0.18936	-0.14343	-0.006561	-0.004425	-0.075226	0.001068	0.063019	0.11566	-0.002289	-0.009003
42.407	0.011292	-0.035706	-0.20065	-0.003204	-0.035706	-0.039825	0.16083	-0.001373	-0.042419	0.16205	0.005188	-0.025787	-0.08667	-0.28229	0.007629	-0.064392	-0.003052	-0.14236	0.075531	0.007935	0.57266	0.039368	-0.060883	-0.083313	0.073547	-0.007324	-0.018463	-0.00351	0.024109	0.095215	-0.00412	-0.004272
42.408	0.011749	-0.003204	-0.16174	0.007172	0.11902	-0.06012	0.15488	0.004425	-0.065613	0.2504	0.013123	0.009308	-0.18387	-0.45609	0.024719	-0.23148	-0.035248	-0.1326	0.061646	-0.018005	0.44098	0.13779	-0.33463	-0.025482	0.26169	-0.00824	0.005646	-0.003357	0.094147	0.075378	-0.001831	0.004272
42.409	0.010681	0.024261	-0.12146	0.001373	0.10086	0.048523	0.11719	0.011749	-0.087738	0.32806	0.010986	0.085449	-0.18173	-0.31632	0.016174	-0.29709	-0.040436	-0.21042	0.060577	-0.031891	0.62118	0.20828	-0.19486	0.074005	0.27451	-0.010071	0.021057	-0.001221	0.16113	0.070801	-0.000305	-0.010834
42.41	0.001831	0.012054	-0.11368	-0.001068	0.056915	0.066833	0.072937	0.012054	-0.10117	0.39078	0.004272	-0.068359	-0.03891	-0.20706	0.027161	0.50323	-0.029755	-0.34302	0.00946	-0.00824	0.70831	0.13397	-0.043793	0.28153	0.11734	-0.006866	0.040894	-0.003967	0.27222	0.06897	-0.003052	-0.011902
42.411	0.000153	0.014038	-0.15259	0.002899	0.0737	0.057526	0.04364	0.012512	-0.055084	0.31021	0.005951	-0.10407	0.08255	-0.62073	0.035858	-0.22339	0.011597	-0.39246	-0.021057	0.003815	0.78995	-0.016785	-0.069885	0.35523	0.14755	0.001678	0.051575	0.000153	0.27054	-0.026245	-0.001831	-0.013885
42.412	0.007172	0.02594	-0.1918	0.015717	0.035553	0.053101	0.022125	0.005188	0.041504	0.26291	0.014191	-0.025635	0.095367	-0.53497	0.037842	0.54565	0.020447	-0.39414	-0.046692	-0.022888	0.91751	-0.2301	-0.20218	0.093231	0.16495	0.002441	0.064697	0.000305	-0.099792	-0.083008	-0.001221	-0.00946
42.413	0.012817	0.03891	-0.13977	0.00824	0.010071	0.061646	0.084991	0.004272	-0.001526	-0.41748	0.007629	0.005951	0.036774	0.019531	0.006409	-0.1387	0.038452	-0.27603	-0.061951	-0.050659	0.74326	-0.45364	-0.21698	-0.18204	0.37201	0.002747	0.083466	-0.001373	-0.47577	-0.098267	-0.001678	-0.011139
42.414	0.010681	0.060577	-0.1152	-0.013428	0.014496	0.025177	0.1767	-0.020599	-0.020294	-0.51941	0.010834	0.005646	0.043488	0.46158	-0.042572	-0.72174	0.1564	-0.19226	-0.049591	-0.057068	0.504	-0.56961	-0.19333	-0.16937	0.59509	-0.001831	0.075836	-0.000916	-0.31387	-0.056458	-0.006409	-0.011139
42.415	-0.005035	0.069122	-0.093079	0.003357	-0.019379	-0.011444	0.2565	-0.005798	-0.008087	-0.22736	0.017242	-0.011139	0.065155	0.65445	-0.056305	0.73898	0.22018	-0.2243	-0.084534	-0.12466	0.43533	-0.39993	-0.19989	-0.19577	0.5455	0.004272	0.053558	-0.003662	0.046082	-0.027008	-0.000458	-0.00061
42.416	-0.003357	0.048676	-0.11932	0.01297	-0.033875	-0.015106	0.27481	0.005798	-0.017548	-0.15488	0.011139	-0.067902	0.10956	0.8725	-0.026093	-0.31784	0.066223	-0.17654	-0.22095	-0.12192	0.40939	-0.015106	-0.39032	-0.25482	0.34485	-0.009003	0.055847	-0.010681	-0.048676	-0.010986	0	-0.00061
42.417	0.003052	-0.005646	-0.04837	0.024567	-0.025482	-0.11276	0.13596	0.009308	-0.045624	-0.10468	0.014191	0.050812	0.029755	0.58777	0.042267	-0.43457	-0.085144	-0.21576	-0.23712	-0.13275	0.001068	0.44525	-0.53268	-0.22827	0.025024	-0.012207	0.063171	-0.013885	0.059357	0.00885	-0.003357	0.002899
42.418	0.009003	0.031891	-0.076294	0.014954	0.030975	-0.23361	0.10086	0.000458	0.022125	-0.078583	0.012054	-0.103	-0.079803	-0.59906	0.049438	0.37796	-0.17212	-0.20889	-0.24414	-0.049591	-0.035553	0.86426	-0.51117	0.041351	-0.2652	-0.012817	0.074158	-0.011902	0.19196	0.011139	0.000305	-0.007935
42.419	0.008087	0.057373	-0.088501	-0.004883	0.041656	-0.26352	0.097198	0.002594	0.063934	-0.039978	0.014496	-0.014191	0.2478	-0.3006	0.051575	0.1651	-0.13992	-0.14191	-0.1236	0.001221	0.50384	0.89218	-0.49774	0.13916	-0.42602	-0.012512	0.053406	-0.018005	0.21729	0.017853	-0.002747	-0.003052
